<svg width="24" height="24" viewBox="0 0 24 24" fill="none" xmlns="http://www.w3.org/2000/svg">
<path d="M16 13L11.85 8.95C11.3333 8.45 10.896 7.896 10.538 7.288C10.18 6.68 10.0007 6.01734 10 5.3C10 4.38334 10.321 3.60434 10.963 2.963C11.605 2.32167 12.384 2.00067 13.3 2C13.8333 2 14.3333 2.11267 14.8 2.338C15.2667 2.56334 15.6667 2.86734 16 3.25C16.3333 2.86667 16.7333 2.56234 17.2 2.337C17.6667 2.11167 18.1667 1.99934 18.7 2C19.6167 2 20.396 2.321 21.038 2.963C21.68 3.605 22.0007 4.384 22 5.3C22 6.01667 21.825 6.67934 21.475 7.288C21.125 7.89667 20.6917 8.45067 20.175 8.95L16 13ZM16 10.2L18.725 7.525C19.0417 7.20834 19.3333 6.87067 19.6 6.512C19.8667 6.15334 20 5.74934 20 5.3C20 4.93334 19.875 4.625 19.625 4.375C19.375 4.125 19.0667 4 18.7 4C18.4667 4 18.2457 4.04567 18.037 4.137C17.8283 4.22834 17.6493 4.366 17.5 4.55L16 6.35L14.5 4.55C14.35 4.36667 14.171 4.229 13.963 4.137C13.755 4.045 13.534 3.99934 13.3 4C12.9333 4 12.625 4.125 12.375 4.375C12.125 4.625 12 4.93334 12 5.3C12 5.75 12.1333 6.15434 12.4 6.513C12.6667 6.87167 12.9583 7.209 13.275 7.525L16 10.2ZM7 18.5L13.95 20.4L19.9 18.55C19.8167 18.4 19.6957 18.2707 19.537 18.162C19.3783 18.0533 19.1993 17.9993 19 18H13.95C13.5 18 13.1417 17.9833 12.875 17.95C12.6083 17.9167 12.3333 17.85 12.05 17.75L9.725 16.975L10.275 15.025L12.3 15.7C12.5833 15.7833 12.9167 15.85 13.3 15.9C13.6833 15.95 14.25 15.9833 15 16C15 15.8167 14.946 15.6417 14.838 15.475C14.73 15.3083 14.6007 15.2 14.45 15.15L8.6 13H7V18.5ZM1 22V11H8.6C8.71667 11 8.83333 11.0127 8.95 11.038C9.06667 11.0633 9.175 11.0923 9.275 11.125L15.15 13.3C15.7 13.5 16.146 13.85 16.488 14.35C16.83 14.85 17.0007 15.4 17 16H19C19.8333 16 20.5417 16.275 21.125 16.825C21.7083 17.375 22 18.1 22 19V20L14 22.5L7 20.55V22H1ZM3 20H5V13H3V20Z" fill="#207521"/>
</svg>
