<svg width="24" height="24" viewBox="0 0 24 24" fill="none" xmlns="http://www.w3.org/2000/svg">
<path d="M11.8752 20C11.9419 20 12.0086 19.9833 12.0752 19.95C12.1419 19.9167 12.1919 19.8833 12.2252 19.85L20.4252 11.65C20.6252 11.45 20.7712 11.225 20.8632 10.975C20.9552 10.725 21.0009 10.475 21.0002 10.225C21.0002 9.95833 20.9546 9.704 20.8632 9.462C20.7719 9.22 20.6259 9.00767 20.4252 8.825L16.1752 4.575C15.9919 4.375 15.7792 4.22933 15.5372 4.138C15.2952 4.04667 15.0416 4.00067 14.7762 4C14.5262 4 14.2762 4.046 14.0262 4.138C13.7762 4.23 13.5512 4.37567 13.3512 4.575L13.0762 4.85L14.9262 6.725C15.1762 6.95833 15.3596 7.225 15.4762 7.525C15.5929 7.825 15.6512 8.14167 15.6512 8.475C15.6512 9.175 15.4139 9.76267 14.9392 10.238C14.4646 10.7133 13.8769 10.9507 13.1762 10.95C12.8429 10.95 12.5222 10.8917 12.2142 10.775C11.9062 10.6583 11.6352 10.4833 11.4012 10.25L9.52523 8.4L5.15023 12.775C5.10023 12.825 5.0629 12.8793 5.03823 12.938C5.01357 12.9967 5.0009 13.059 5.00023 13.125C5.00023 13.2583 5.05023 13.3793 5.15023 13.488C5.25023 13.5967 5.3669 13.6507 5.50023 13.65C5.5669 13.65 5.63357 13.6333 5.70023 13.6C5.7669 13.5667 5.8169 13.5333 5.85023 13.5L9.25023 10.1L10.6502 11.5L7.27523 14.9C7.22523 14.95 7.1879 15.0043 7.16323 15.063C7.13857 15.1217 7.1259 15.184 7.12523 15.25C7.12523 15.3833 7.17523 15.5 7.27523 15.6C7.37523 15.7 7.4919 15.75 7.62523 15.75C7.6919 15.75 7.75857 15.7333 7.82523 15.7C7.8919 15.6667 7.9419 15.6333 7.97523 15.6L11.3752 12.225L12.7752 13.625L9.40023 17.025C9.35023 17.0583 9.3129 17.1083 9.28823 17.175C9.26357 17.2417 9.2509 17.3083 9.25023 17.375C9.25023 17.5083 9.30023 17.625 9.40023 17.725C9.50023 17.825 9.6169 17.875 9.75023 17.875C9.8169 17.875 9.87957 17.8623 9.93823 17.837C9.9969 17.8117 10.0509 17.7743 10.1002 17.725L13.5002 14.35L14.9002 15.75L11.5002 19.15C11.4502 19.2 11.4129 19.254 11.3882 19.312C11.3636 19.37 11.3509 19.4327 11.3502 19.5C11.3502 19.6333 11.4046 19.75 11.5132 19.85C11.6219 19.95 11.7426 20 11.8752 20ZM11.8502 22C11.2336 22 10.6879 21.796 10.2132 21.388C9.73857 20.98 9.45923 20.4673 9.37523 19.85C8.80857 19.7667 8.33357 19.5333 7.95023 19.15C7.5669 18.7667 7.33357 18.2917 7.25023 17.725C6.68357 17.6417 6.2129 17.4043 5.83823 17.013C5.46357 16.6217 5.23423 16.1507 5.15023 15.6C4.5169 15.5167 4.00023 15.2417 3.60023 14.775C3.20023 14.3083 3.00023 13.7583 3.00023 13.125C3.00023 12.7917 3.0629 12.471 3.18823 12.163C3.31357 11.855 3.49257 11.584 3.72523 11.35L9.52523 5.575L12.8002 8.85C12.8336 8.9 12.8836 8.93767 12.9502 8.963C13.0169 8.98833 13.0836 9.00067 13.1502 9C13.3002 9 13.4252 8.95433 13.5252 8.863C13.6252 8.77167 13.6752 8.65067 13.6752 8.5C13.6752 8.43333 13.6626 8.36667 13.6372 8.3C13.6119 8.23333 13.5746 8.18333 13.5252 8.15L9.95023 4.575C9.7669 4.375 9.55457 4.22933 9.31323 4.138C9.0719 4.04667 8.81757 4.00067 8.55023 4C8.30023 4 8.05023 4.046 7.80023 4.138C7.55023 4.23 7.32523 4.37567 7.12523 4.575L3.60023 8.125C3.45023 8.275 3.32523 8.45 3.22523 8.65C3.12523 8.85 3.05857 9.05 3.02523 9.25C2.9919 9.45 2.9919 9.65433 3.02523 9.863C3.05857 10.0717 3.12523 10.2673 3.22523 10.45L1.77523 11.9C1.4919 11.5167 1.28357 11.096 1.15023 10.638C1.0169 10.18 0.966901 9.71733 1.00023 9.25C1.03357 8.78267 1.15023 8.32867 1.35023 7.888C1.55023 7.44733 1.82523 7.05133 2.17523 6.7L5.70023 3.175C6.10023 2.79167 6.54623 2.5 7.03823 2.3C7.53023 2.1 8.03424 2 8.55023 2C9.06623 2 9.57057 2.1 10.0632 2.3C10.5559 2.5 10.9932 2.79167 11.3752 3.175L11.6502 3.45L11.9252 3.175C12.3252 2.79167 12.7712 2.5 13.2632 2.3C13.7552 2.1 14.2592 2 14.7752 2C15.2912 2 15.7956 2.1 16.2882 2.3C16.7809 2.5 17.2182 2.79167 17.6002 3.175L21.8252 7.4C22.2086 7.78333 22.5002 8.225 22.7002 8.725C22.9002 9.225 23.0002 9.73333 23.0002 10.25C23.0002 10.7667 22.9002 11.271 22.7002 11.763C22.5002 12.255 22.2086 12.6923 21.8252 13.075L13.6252 21.25C13.3919 21.4833 13.1212 21.6667 12.8132 21.8C12.5052 21.9333 12.1842 22 11.8502 22Z" fill="#207521"/>
</svg>
