<svg width="24" height="24" viewBox="0 0 24 24" fill="none" xmlns="http://www.w3.org/2000/svg">
<g clip-path="url(#clip0_623_4993)">
<path d="M11.9987 12.6014C13.849 12.6014 15.3619 11.0975 15.3619 9.23821C15.3619 7.37889 13.858 5.875 11.9987 5.875C10.1394 5.875 8.63548 7.37889 8.63548 9.23821C8.63548 11.0975 10.1394 12.6014 11.9987 12.6014ZM11.9987 7.24204C13.1015 7.24204 13.9948 8.13527 13.9948 9.23815C13.9948 10.341 13.1016 11.2343 11.9987 11.2343C10.8958 11.2343 10.0026 10.341 10.0026 9.23815C10.0026 8.13527 10.8958 7.24204 11.9987 7.24204ZM19.2723 12.7837C20.9129 12.7837 22.2438 11.453 22.2438 9.81221C22.2438 8.17144 20.913 6.84071 19.2723 6.84071C17.6315 6.84071 16.3008 8.17144 16.3008 9.81221C16.3008 11.453 17.6315 12.7837 19.2723 12.7837ZM19.2723 8.20804C20.1564 8.20804 20.8764 8.92811 20.8764 9.81221C20.8764 10.6963 20.1564 11.4164 19.2723 11.4164C18.3882 11.4164 17.6681 10.6963 17.6681 9.81221C17.6681 8.92811 18.3882 8.20804 19.2723 8.20804ZM23.957 12.6285C23.2096 11.8811 21.9153 11.8903 21.168 12.6285C20.6666 13.1299 19.9922 13.4124 19.2721 13.4124C18.5521 13.4124 17.8685 13.0934 17.3307 12.5648C17.3125 12.5465 17.2852 12.5374 17.2669 12.5192C16.4284 11.8082 15.0794 11.8356 14.2954 12.6194C13.0649 13.8499 10.9232 13.8408 9.70168 12.6194C8.89959 11.8174 7.63265 11.7718 6.76693 12.4827C6.73047 12.5101 6.69401 12.5192 6.65755 12.5556C6.12891 13.0843 5.39974 13.4033 4.71616 13.4033C4.00522 13.4033 3.33074 13.1207 2.82033 12.6194C2.07293 11.872 0.77866 11.872 0.0312646 12.6194C-0.342419 12.9931 -0.542969 13.4853 -0.542969 14.0139C-0.542969 14.5426 -0.342448 15.0348 0.0312646 15.4085C1.31641 16.6936 3.01181 17.3681 4.72535 17.3681C5.73708 17.3681 6.75791 17.1129 7.69685 16.6298C8.95466 17.4866 10.4403 17.9514 11.9899 17.9514C13.5395 17.9514 15.025 17.4866 16.2739 16.6298C17.2127 17.1129 18.2335 17.3681 19.2544 17.3681C20.9589 17.3681 22.6634 16.7028 23.9485 15.4085C24.3222 15.0348 24.5227 14.5426 24.5227 14.0139C24.5227 13.4853 24.3222 12.9931 23.9485 12.6194L23.957 12.6285ZM1.00635 14.4424C0.860517 14.2965 0.833173 14.1325 0.833173 14.014C0.833173 13.8499 0.896975 13.7041 1.00635 13.5856C1.36183 13.2301 1.6717 13.3942 1.86312 13.5856C2.62875 14.3512 3.64048 14.7705 4.7251 14.7705C5.14437 14.7705 5.57274 14.6702 5.99204 14.5244C6.06496 14.9528 6.25636 15.3355 6.54802 15.6546C4.66128 16.3655 2.4921 15.9189 1.00635 14.4332V14.4424ZM7.56885 14.7523C7.4139 14.5973 7.33187 14.3877 7.33187 14.1689C7.33187 13.9502 7.4139 13.7405 7.57796 13.5856C7.74203 13.4215 7.95165 13.3486 8.1613 13.3486C8.37095 13.3486 8.58057 13.4306 8.74463 13.5947C9.61963 14.4697 10.7772 14.9437 12.0078 14.9437C13.2384 14.9437 14.3958 14.4606 15.271 13.5947C15.5809 13.2848 16.1277 13.2848 16.4376 13.5947C16.5926 13.7496 16.6746 13.9593 16.6746 14.178C16.6746 14.3968 16.5926 14.6064 16.4376 14.7614C15.2527 15.9463 13.6759 16.5934 12.0078 16.5934C10.3397 16.5934 8.76301 15.9371 7.57796 14.7614L7.56885 14.7523ZM22.9907 14.4515C21.505 15.9372 19.3268 16.3838 17.44 15.6728C17.7408 15.3538 17.9322 14.9619 18.0051 14.5426C18.4244 14.6885 18.8528 14.7887 19.2721 14.7887C20.3567 14.7887 21.3684 14.3695 22.134 13.6038C22.3254 13.4124 22.6354 13.2575 22.9908 13.6038C23.1002 13.7223 23.164 13.8682 23.164 14.0322C23.164 14.1507 23.1366 14.3148 22.9908 14.4606L22.9907 14.4515ZM4.7251 12.7744C6.36573 12.7744 7.6966 11.4437 7.6966 9.8029C7.6966 8.16213 6.36587 6.8314 4.7251 6.8314C3.08433 6.8314 1.7536 8.16213 1.7536 9.8029C1.7536 11.4437 3.08433 12.7744 4.7251 12.7744ZM4.7251 8.19874C5.6092 8.19874 6.32927 8.9188 6.32927 9.8029C6.32927 10.687 5.6092 11.4071 4.7251 11.4071C3.841 11.4071 3.12093 10.687 3.12093 9.8029C3.12093 8.9188 3.841 8.19874 4.7251 8.19874Z" fill="#207521"/>
</g>
<defs>
<clipPath id="clip0_623_4993">
<rect width="24" height="24" fill="white"/>
</clipPath>
</defs>
</svg>
