<svg width="510" height="374" viewBox="0 0 510 374" fill="none" xmlns="http://www.w3.org/2000/svg">
<path d="M0 20C0 8.9543 8.95431 0 20 0H490C501.046 0 510 8.95431 510 20V208.351C510 219.397 501.046 228.351 490 228.351H471.5C460.454 228.351 451.5 237.306 451.5 248.351V258.432C451.5 269.478 442.546 278.432 431.5 278.432H396.5C385.454 278.432 376.5 287.387 376.5 298.432V310.351C376.5 321.397 367.546 330.351 356.5 330.351H312C300.954 330.351 292 339.306 292 350.351V354C292 365.046 283.046 374 272 374H20C8.9543 374 0 365.046 0 354V20Z" fill="#1A1A1A"/>
</svg>
